<svg xmlns="http://www.w3.org/2000/svg" viewBox="0 0 220 180">
<defs><linearGradient id="g" x1="0" y1="0" x2="1" y2="1"><stop stop-color="#f5f5f5"/><stop offset="1" stop-color="#8b8b8f"/></linearGradient></defs>
<ellipse cx="110" cy="145" rx="70" ry="12" fill="#000" opacity=".12"/>
<path d="M34 122c-4-44 22-84 70-90 49-6 88 22 87 61-1 40-38 62-84 62-43 0-69-10-73-33Z" fill="#fff1f2" stroke="#111114" stroke-width="7"/><path d="M78 79c32-42 77-40 108-10-20 34-56 48-97 35Z" fill="#be123c" stroke="#111114" stroke-width="6"/><path d="M91 68c28-17 58-15 81 0" fill="none" stroke="#77777d" stroke-width="7"/><circle cx="134" cy="39" r="8" fill="#000"/><path d="M178 39l36 18-36 12" fill="#ec4899" stroke="#111114" stroke-width="5"/><path d="M72 131l21 20m46-20 22 17" stroke="#111114" stroke-width="6" stroke-linecap="round"/><path d="M63 107c15 9 29 11 43 7" fill="none" stroke="#77777d" stroke-width="4"/></svg>